%TF.GenerationSoftware,KiCad,Pcbnew,(6.0.1)*%
%TF.CreationDate,2022-08-22T18:54:28-05:00*%
%TF.ProjectId,Biohacking Village Badge - Gutz-Girl,42696f68-6163-46b6-996e-672056696c6c,1.0b*%
%TF.SameCoordinates,Original*%
%TF.FileFunction,Soldermask,Bot*%
%TF.FilePolarity,Negative*%
%FSLAX46Y46*%
G04 Gerber Fmt 4.6, Leading zero omitted, Abs format (unit mm)*
G04 Created by KiCad (PCBNEW (6.0.1)) date 2022-08-22 18:54:28*
%MOMM*%
%LPD*%
G01*
G04 APERTURE LIST*
G04 Aperture macros list*
%AMRoundRect*
0 Rectangle with rounded corners*
0 $1 Rounding radius*
0 $2 $3 $4 $5 $6 $7 $8 $9 X,Y pos of 4 corners*
0 Add a 4 corners polygon primitive as box body*
4,1,4,$2,$3,$4,$5,$6,$7,$8,$9,$2,$3,0*
0 Add four circle primitives for the rounded corners*
1,1,$1+$1,$2,$3*
1,1,$1+$1,$4,$5*
1,1,$1+$1,$6,$7*
1,1,$1+$1,$8,$9*
0 Add four rect primitives between the rounded corners*
20,1,$1+$1,$2,$3,$4,$5,0*
20,1,$1+$1,$4,$5,$6,$7,0*
20,1,$1+$1,$6,$7,$8,$9,0*
20,1,$1+$1,$8,$9,$2,$3,0*%
%AMHorizOval*
0 Thick line with rounded ends*
0 $1 width*
0 $2 $3 position (X,Y) of the first rounded end (center of the circle)*
0 $4 $5 position (X,Y) of the second rounded end (center of the circle)*
0 Add line between two ends*
20,1,$1,$2,$3,$4,$5,0*
0 Add two circle primitives to create the rounded ends*
1,1,$1,$2,$3*
1,1,$1,$4,$5*%
G04 Aperture macros list end*
%ADD10C,1.152495*%
%ADD11C,0.100000*%
%ADD12HorizOval,7.400000X-0.854103X3.187555X0.854103X-3.187555X0*%
%ADD13R,2.032000X1.524000*%
%ADD14R,2.095500X1.397000*%
%ADD15R,1.550000X0.700000*%
%ADD16RoundRect,0.250000X0.250000X0.475000X-0.250000X0.475000X-0.250000X-0.475000X0.250000X-0.475000X0*%
%ADD17RoundRect,0.250000X-0.625000X0.312500X-0.625000X-0.312500X0.625000X-0.312500X0.625000X0.312500X0*%
%ADD18R,6.000000X6.200000*%
%ADD19C,23.000000*%
%ADD20C,5.600000*%
%ADD21RoundRect,0.250000X-0.312500X-0.625000X0.312500X-0.625000X0.312500X0.625000X-0.312500X0.625000X0*%
%ADD22O,7.000000X15.000000*%
%ADD23RoundRect,0.250000X0.475000X-0.250000X0.475000X0.250000X-0.475000X0.250000X-0.475000X-0.250000X0*%
%ADD24RoundRect,0.250000X0.625000X-0.375000X0.625000X0.375000X-0.625000X0.375000X-0.625000X-0.375000X0*%
%ADD25RoundRect,0.250000X0.312500X0.625000X-0.312500X0.625000X-0.312500X-0.625000X0.312500X-0.625000X0*%
%ADD26RoundRect,0.150000X0.825000X0.150000X-0.825000X0.150000X-0.825000X-0.150000X0.825000X-0.150000X0*%
%ADD27HorizOval,7.000000X-1.164686X4.346666X1.164686X-4.346666X0*%
%ADD28R,1.700000X1.700000*%
%ADD29R,0.800000X1.000000*%
%ADD30C,0.900000*%
%ADD31R,1.500000X0.700000*%
%ADD32R,2.500000X2.500000*%
G04 APERTURE END LIST*
%TO.C,D2*%
D10*
X85726447Y-46268800D02*
G75*
G03*
X85726447Y-46268800I-576247J0D01*
G01*
D11*
X86394800Y-49570800D02*
X86394800Y-47589600D01*
X86394800Y-47589600D02*
X83905600Y-47589600D01*
X83905600Y-47589600D02*
X83905600Y-49570800D01*
X83905600Y-49570800D02*
X86394800Y-49570800D01*
G36*
X86394800Y-49570800D02*
G01*
X83905600Y-49570800D01*
X83905600Y-47589600D01*
X86394800Y-47589600D01*
X86394800Y-49570800D01*
G37*
X86394800Y-49570800D02*
X83905600Y-49570800D01*
X83905600Y-47589600D01*
X86394800Y-47589600D01*
X86394800Y-49570800D01*
X86369400Y-44948000D02*
X86369400Y-43017600D01*
X86369400Y-43017600D02*
X83931000Y-43017600D01*
X83931000Y-43017600D02*
X83931000Y-44948000D01*
X83931000Y-44948000D02*
X86369400Y-44948000D01*
G36*
X86369400Y-44948000D02*
G01*
X83931000Y-44948000D01*
X83931000Y-43017600D01*
X86369400Y-43017600D01*
X86369400Y-44948000D01*
G37*
X86369400Y-44948000D02*
X83931000Y-44948000D01*
X83931000Y-43017600D01*
X86369400Y-43017600D01*
X86369400Y-44948000D01*
%TO.C,D3*%
D10*
X93676647Y-46243400D02*
G75*
G03*
X93676647Y-46243400I-576247J0D01*
G01*
D11*
X94319600Y-44922600D02*
X94319600Y-42992200D01*
X94319600Y-42992200D02*
X91881200Y-42992200D01*
X91881200Y-42992200D02*
X91881200Y-44922600D01*
X91881200Y-44922600D02*
X94319600Y-44922600D01*
G36*
X94319600Y-44922600D02*
G01*
X91881200Y-44922600D01*
X91881200Y-42992200D01*
X94319600Y-42992200D01*
X94319600Y-44922600D01*
G37*
X94319600Y-44922600D02*
X91881200Y-44922600D01*
X91881200Y-42992200D01*
X94319600Y-42992200D01*
X94319600Y-44922600D01*
X94345000Y-49545400D02*
X94345000Y-47564200D01*
X94345000Y-47564200D02*
X91855800Y-47564200D01*
X91855800Y-47564200D02*
X91855800Y-49545400D01*
X91855800Y-49545400D02*
X94345000Y-49545400D01*
G36*
X94345000Y-49545400D02*
G01*
X91855800Y-49545400D01*
X91855800Y-47564200D01*
X94345000Y-47564200D01*
X94345000Y-49545400D01*
G37*
X94345000Y-49545400D02*
X91855800Y-49545400D01*
X91855800Y-47564200D01*
X94345000Y-47564200D01*
X94345000Y-49545400D01*
%TO.C,D1*%
D10*
X77776247Y-46268800D02*
G75*
G03*
X77776247Y-46268800I-576247J0D01*
G01*
D11*
X78419200Y-44948000D02*
X78419200Y-43017600D01*
X78419200Y-43017600D02*
X75980800Y-43017600D01*
X75980800Y-43017600D02*
X75980800Y-44948000D01*
X75980800Y-44948000D02*
X78419200Y-44948000D01*
G36*
X78419200Y-44948000D02*
G01*
X75980800Y-44948000D01*
X75980800Y-43017600D01*
X78419200Y-43017600D01*
X78419200Y-44948000D01*
G37*
X78419200Y-44948000D02*
X75980800Y-44948000D01*
X75980800Y-43017600D01*
X78419200Y-43017600D01*
X78419200Y-44948000D01*
X78444600Y-49570800D02*
X78444600Y-47589600D01*
X78444600Y-47589600D02*
X75955400Y-47589600D01*
X75955400Y-47589600D02*
X75955400Y-49570800D01*
X75955400Y-49570800D02*
X78444600Y-49570800D01*
G36*
X78444600Y-49570800D02*
G01*
X75955400Y-49570800D01*
X75955400Y-47589600D01*
X78444600Y-47589600D01*
X78444600Y-49570800D01*
G37*
X78444600Y-49570800D02*
X75955400Y-49570800D01*
X75955400Y-47589600D01*
X78444600Y-47589600D01*
X78444600Y-49570800D01*
%TD*%
D12*
%TO.C,*%
X119329200Y-133527800D03*
%TD*%
D13*
%TO.C,D2*%
X85150200Y-48554800D03*
D14*
X85150200Y-43982800D03*
%TD*%
%TO.C,D3*%
X93100400Y-43957400D03*
D13*
X93100400Y-48529400D03*
%TD*%
D14*
%TO.C,D1*%
X77200000Y-43982800D03*
D13*
X77200000Y-48554800D03*
%TD*%
D15*
%TO.C,U1*%
X145473000Y-74549000D03*
X145473000Y-75819000D03*
X145473000Y-77089000D03*
X145473000Y-78359000D03*
X145473000Y-79629000D03*
X145473000Y-80899000D03*
X145473000Y-82169000D03*
X145473000Y-83439000D03*
X140023000Y-83439000D03*
X140023000Y-82169000D03*
X140023000Y-80899000D03*
X140023000Y-79629000D03*
X140023000Y-78359000D03*
X140023000Y-77089000D03*
X140023000Y-75819000D03*
X140023000Y-74549000D03*
%TD*%
D16*
%TO.C,C5*%
X139950000Y-70250000D03*
X138050000Y-70250000D03*
%TD*%
D17*
%TO.C,R3*%
X93075000Y-52426300D03*
X93075000Y-55351300D03*
%TD*%
D18*
%TO.C,CR2450*%
X79026600Y-149294000D03*
X78925000Y-118500000D03*
D19*
X78925000Y-133800000D03*
%TD*%
D20*
%TO.C,REF\u002A\u002A*%
X114175000Y-69150000D03*
%TD*%
D16*
%TO.C,C3*%
X139950000Y-72500000D03*
X138050000Y-72500000D03*
%TD*%
D17*
%TO.C,R7*%
X109728000Y-93025500D03*
X109728000Y-95950500D03*
%TD*%
D21*
%TO.C,R6*%
X131379500Y-92170000D03*
X134304500Y-92170000D03*
%TD*%
D22*
%TO.C,REF\u002A\u002A*%
X97612200Y-101447600D03*
%TD*%
D23*
%TO.C,C1*%
X146500000Y-88450000D03*
X146500000Y-86550000D03*
%TD*%
D17*
%TO.C,R1*%
X77225400Y-52273900D03*
X77225400Y-55198900D03*
%TD*%
D24*
%TO.C,D4*%
X110744000Y-105286000D03*
X110744000Y-102486000D03*
%TD*%
D16*
%TO.C,C6*%
X137950000Y-90000000D03*
X136050000Y-90000000D03*
%TD*%
D25*
%TO.C,R5*%
X134304500Y-97250000D03*
X131379500Y-97250000D03*
%TD*%
D26*
%TO.C,U2*%
X145223000Y-90170000D03*
X145223000Y-91440000D03*
X145223000Y-92710000D03*
X145223000Y-93980000D03*
X145223000Y-95250000D03*
X145223000Y-96520000D03*
X145223000Y-97790000D03*
X140273000Y-97790000D03*
X140273000Y-96520000D03*
X140273000Y-95250000D03*
X140273000Y-93980000D03*
X140273000Y-92710000D03*
X140273000Y-91440000D03*
X140273000Y-90170000D03*
%TD*%
D16*
%TO.C,C2*%
X133700000Y-87750000D03*
X131800000Y-87750000D03*
%TD*%
D17*
%TO.C,R2*%
X85150200Y-52248500D03*
X85150200Y-55173500D03*
%TD*%
D27*
%TO.C,REF\u002A\u002A*%
X127381000Y-111556800D03*
%TD*%
D28*
%TO.C,J1*%
X141732000Y-144526000D03*
%TD*%
D16*
%TO.C,C4*%
X137950000Y-87750000D03*
X136050000Y-87750000D03*
%TD*%
D29*
%TO.C,SW1*%
X149875000Y-56482000D03*
D30*
X150985000Y-51332000D03*
D29*
X152085000Y-49182000D03*
X152085000Y-56482000D03*
D30*
X150985000Y-54332000D03*
D29*
X149875000Y-49182000D03*
D31*
X149225000Y-50582000D03*
X149225000Y-53582000D03*
X149225000Y-55082000D03*
%TD*%
D32*
%TO.C,BZ1*%
X104120900Y-48450100D03*
X111120900Y-48450100D03*
X111120900Y-55450100D03*
X104120900Y-55450100D03*
%TD*%
D17*
%TO.C,R4*%
X149250000Y-86287500D03*
X149250000Y-89212500D03*
%TD*%
M02*
