%TF.GenerationSoftware,KiCad,Pcbnew,(6.0.1)*%
%TF.CreationDate,2022-08-22T18:54:28-05:00*%
%TF.ProjectId,Biohacking Village Badge - Gutz-Girl,42696f68-6163-46b6-996e-672056696c6c,1.0b*%
%TF.SameCoordinates,Original*%
%TF.FileFunction,Paste,Bot*%
%TF.FilePolarity,Positive*%
%FSLAX46Y46*%
G04 Gerber Fmt 4.6, Leading zero omitted, Abs format (unit mm)*
G04 Created by KiCad (PCBNEW (6.0.1)) date 2022-08-22 18:54:28*
%MOMM*%
%LPD*%
G01*
G04 APERTURE LIST*
G04 Aperture macros list*
%AMRoundRect*
0 Rectangle with rounded corners*
0 $1 Rounding radius*
0 $2 $3 $4 $5 $6 $7 $8 $9 X,Y pos of 4 corners*
0 Add a 4 corners polygon primitive as box body*
4,1,4,$2,$3,$4,$5,$6,$7,$8,$9,$2,$3,0*
0 Add four circle primitives for the rounded corners*
1,1,$1+$1,$2,$3*
1,1,$1+$1,$4,$5*
1,1,$1+$1,$6,$7*
1,1,$1+$1,$8,$9*
0 Add four rect primitives between the rounded corners*
20,1,$1+$1,$2,$3,$4,$5,0*
20,1,$1+$1,$4,$5,$6,$7,0*
20,1,$1+$1,$6,$7,$8,$9,0*
20,1,$1+$1,$8,$9,$2,$3,0*%
G04 Aperture macros list end*
%ADD10R,2.032000X1.524000*%
%ADD11R,2.095500X1.397000*%
%ADD12R,1.550000X0.700000*%
%ADD13RoundRect,0.250000X0.250000X0.475000X-0.250000X0.475000X-0.250000X-0.475000X0.250000X-0.475000X0*%
%ADD14RoundRect,0.250000X-0.625000X0.312500X-0.625000X-0.312500X0.625000X-0.312500X0.625000X0.312500X0*%
%ADD15R,6.000000X6.200000*%
%ADD16C,23.000000*%
%ADD17RoundRect,0.250000X-0.312500X-0.625000X0.312500X-0.625000X0.312500X0.625000X-0.312500X0.625000X0*%
%ADD18RoundRect,0.250000X0.475000X-0.250000X0.475000X0.250000X-0.475000X0.250000X-0.475000X-0.250000X0*%
%ADD19RoundRect,0.250000X0.625000X-0.375000X0.625000X0.375000X-0.625000X0.375000X-0.625000X-0.375000X0*%
%ADD20RoundRect,0.250000X0.312500X0.625000X-0.312500X0.625000X-0.312500X-0.625000X0.312500X-0.625000X0*%
%ADD21RoundRect,0.150000X0.825000X0.150000X-0.825000X0.150000X-0.825000X-0.150000X0.825000X-0.150000X0*%
%ADD22R,0.800000X1.000000*%
%ADD23R,1.500000X0.700000*%
%ADD24R,2.500000X2.500000*%
G04 APERTURE END LIST*
D10*
%TO.C,D2*%
X85150200Y-48554800D03*
D11*
X85150200Y-43982800D03*
%TD*%
%TO.C,D3*%
X93100400Y-43957400D03*
D10*
X93100400Y-48529400D03*
%TD*%
D11*
%TO.C,D1*%
X77200000Y-43982800D03*
D10*
X77200000Y-48554800D03*
%TD*%
D12*
%TO.C,U1*%
X145473000Y-74549000D03*
X145473000Y-75819000D03*
X145473000Y-77089000D03*
X145473000Y-78359000D03*
X145473000Y-79629000D03*
X145473000Y-80899000D03*
X145473000Y-82169000D03*
X145473000Y-83439000D03*
X140023000Y-83439000D03*
X140023000Y-82169000D03*
X140023000Y-80899000D03*
X140023000Y-79629000D03*
X140023000Y-78359000D03*
X140023000Y-77089000D03*
X140023000Y-75819000D03*
X140023000Y-74549000D03*
%TD*%
D13*
%TO.C,C5*%
X139950000Y-70250000D03*
X138050000Y-70250000D03*
%TD*%
D14*
%TO.C,R3*%
X93075000Y-52426300D03*
X93075000Y-55351300D03*
%TD*%
D15*
%TO.C,CR2450*%
X79026600Y-149294000D03*
X78925000Y-118500000D03*
D16*
X78925000Y-133800000D03*
%TD*%
D13*
%TO.C,C3*%
X139950000Y-72500000D03*
X138050000Y-72500000D03*
%TD*%
D14*
%TO.C,R7*%
X109728000Y-93025500D03*
X109728000Y-95950500D03*
%TD*%
D17*
%TO.C,R6*%
X131379500Y-92170000D03*
X134304500Y-92170000D03*
%TD*%
D18*
%TO.C,C1*%
X146500000Y-88450000D03*
X146500000Y-86550000D03*
%TD*%
D14*
%TO.C,R1*%
X77225400Y-52273900D03*
X77225400Y-55198900D03*
%TD*%
D19*
%TO.C,D4*%
X110744000Y-105286000D03*
X110744000Y-102486000D03*
%TD*%
D13*
%TO.C,C6*%
X137950000Y-90000000D03*
X136050000Y-90000000D03*
%TD*%
D20*
%TO.C,R5*%
X134304500Y-97250000D03*
X131379500Y-97250000D03*
%TD*%
D21*
%TO.C,U2*%
X145223000Y-90170000D03*
X145223000Y-91440000D03*
X145223000Y-92710000D03*
X145223000Y-93980000D03*
X145223000Y-95250000D03*
X145223000Y-96520000D03*
X145223000Y-97790000D03*
X140273000Y-97790000D03*
X140273000Y-96520000D03*
X140273000Y-95250000D03*
X140273000Y-93980000D03*
X140273000Y-92710000D03*
X140273000Y-91440000D03*
X140273000Y-90170000D03*
%TD*%
D13*
%TO.C,C2*%
X133700000Y-87750000D03*
X131800000Y-87750000D03*
%TD*%
D14*
%TO.C,R2*%
X85150200Y-52248500D03*
X85150200Y-55173500D03*
%TD*%
D13*
%TO.C,C4*%
X137950000Y-87750000D03*
X136050000Y-87750000D03*
%TD*%
D22*
%TO.C,SW1*%
X149875000Y-56482000D03*
X152085000Y-49182000D03*
X152085000Y-56482000D03*
X149875000Y-49182000D03*
D23*
X149225000Y-50582000D03*
X149225000Y-53582000D03*
X149225000Y-55082000D03*
%TD*%
D24*
%TO.C,BZ1*%
X104120900Y-48450100D03*
X111120900Y-48450100D03*
X111120900Y-55450100D03*
X104120900Y-55450100D03*
%TD*%
D14*
%TO.C,R4*%
X149250000Y-86287500D03*
X149250000Y-89212500D03*
%TD*%
M02*
